# xmcd
#
# Track frame offsets: 
#        182
#        13752
#        25800
#        38655
#        51227
#        64677
#        77005
#        88870
#        101015
#        112232
#        125337
#        137785
#        155210
#        179050
#        211465
#        225250
#
# Disc length: 3226 seconds
#
# Revision: 5
# Processed by: cddbd v1.5.2PL0 Copyright (c) Steve Scherf et al.
# Submitted via: ExactAudioCopy v0.95b4
#
DISCID=df0c9810
DTITLE=Lightnin' Hopkins - The Very Best of Lightnin' Hopkins
DYEAR=2000
DGENRE=Blues
TTITLE0=Katie Mae Blues
TTITLE1=Shotgun Blues
TTITLE2=Baby PLease Don't Go
TTITLE3=Automobile
TTITLE4=Give Me Central 209 (Hello Central)
TTITLE5=Coffee Blues
TTITLE6=I'm Beggin' You
TTITLE7=Contrary Mary
TTITLE8=Moanin' Blues
TTITLE9=Penitentiary Blues
TTITLE10=Fan It
TTITLE11=Conversation Blues
TTITLE12=Last Night Blues
TTITLE13=Mighty Crazy
TTITLE14=Mojo Hand
TTITLE15=Baby Don't you Tear My Clothes
EXTD=
EXTT0=
EXTT1=
EXTT2=
EXTT3=
EXTT4=
EXTT5=
EXTT6=
EXTT7=
EXTT8=
EXTT9=
EXTT10=
EXTT11=
EXTT12=
EXTT13=
EXTT14=
EXTT15=
PLAYORDER=
